# AST/ASF file generated using VICON BodyLanguage
# -----------------------------------------------
:version 1.10
:name VICON
:units
  mass 1.0
  length 0.45
  angle deg
:documentation
   .ast/.asf automatically generated from VICON data using
   VICON BodyBuilder and BodyLanguage model FoxedUp or BRILLIANT.MOD
:root
   order TX TY TZ RX RY RZ
   axis XYZ
   position 0 0 0  
   orientation 0 0 0 
:bonedata
  begin
     id 1 
     name lhipjoint
     direction 0.630082 -0.636569 0.44472 
     length 2.82754 
     axis 0 0 0  XYZ
  end
  begin
     id 2 
     name lfemur
     direction 0.34202 -0.939693 0  
     length 7.26371  
     axis 0 0 20  XYZ
    dof rx ry rz
    limits (-160.0 20.0)
           (-70.0 70.0)
           (-60.0 70.0)
  end
  begin
     id 3 
     name ltibia
     direction 0.34202 -0.939693 0   
     length 7.88616   
     axis 0 0 20   XYZ
    dof rx
    limits (-10.0 170.0)
  end
  begin
     id 4 
     name lfoot
     direction 0.0603448 -0.165796 0.984312   
     length 1.77861   
     axis -90 7.62852e-016 20   XYZ
    dof rx rz
    limits (-45.0 90.0)
           (-70.0 20.0)
  end
  begin
     id 5 
     name ltoes
     direction 1.53577e-011 -4.21876e-011 1   
     length 0.902235   
     axis -90 7.62852e-016 20   XYZ
    dof rx
    limits (-90.0 20.0)
  end
  begin
     id 6 
     name rhipjoint
     direction -0.656778 -0.61817 0.431866   
     length 2.9117  
     axis 0 0 0  XYZ 
  end
  begin
     id 7 
     name rfemur
     direction -0.34202 -0.939693 0   
     length 6.81603   
     axis 0 0 -20   XYZ
    dof rx ry rz
    limits (-160.0 20.0)
           (-70.0 70.0)
           (-70.0 60.0)
  end
  begin
     id 8 
     name rtibia
     direction -0.34202 -0.939693 0   
     length 8.05997   
     axis 0 0 -20   XYZ
    dof rx
    limits (-10.0 170.0)
 end
 begin
     id 9 
     name rfoot
     direction -0.0862404 -0.236944 0.967688   
     length 1.84899  
     axis -90 -7.62852e-016 -20   XYZ
    dof rx rz
    limits (-45.0 90.0)
           (-20.0 70.0)
  end
  begin
     id 10 
     name rtoes
     direction -1.53561e-011 -4.21798e-011 1   
     length 0.931579   
     axis -90 -7.62852e-016 -20   XYZ
    dof rx
    limits (-90.0 20.0)
  end
  begin
     id 11 
     name lowerback
     direction -0.0110203 0.991769 -0.127564   
     length 2.05686   
     axis 0 0 0   XYZ
    dof rx ry rz
    limits (-20.0 45.0)
           (-30.0 30.0)
           (-30.0 30.0)
  end
  begin
     id 12 
     name upperback
     direction 0.0109719 0.99993 -0.00432479   
     length 2.06234   
     axis 0 0 0   XYZ
    dof rx ry rz
    limits (-20.0 45.0)
           (-30.0 30.0)
           (-30.0 30.0)
  end
  begin
     id 13 
     name thorax
     direction 0.0173308 0.998351 0.0547306   
     length 2.09856   
     axis 0 0 0   XYZ
    dof rx ry rz
    limits (-20.0 45.0)
           (-30.0 30.0)
           (-30.0 30.0)
  end
  begin
     id 14 
     name lowerneck
     direction -0.0311736 0.989033 0.144366   
     length 1.98151   
     axis 0 0 0   XYZ
    dof rx ry rz
    limits (-20.0 45.0)
           (-30.0 30.0)
           (-30.0 30.0)
  end
  begin
     id 15 
     name upperneck
     direction 0.0421057 0.975772 -0.214698   
     length 2.01457   
     axis 0 0 0   XYZ
    dof rx ry rz
    limits (-20.0 45.0)
           (-30.0 30.0)
           (-30.0 30.0)
  end
  begin
     id 16
     name head
     direction 0.0136911 0.995958 -0.0887718  
     length 2.03562  
     axis 0 0 0   XYZ
    dof rx ry rz
    limits (-20.0 45.0)
           (-30.0 30.0)
           (-30.0 30.0)
  end
  begin
     id 17 
     name lclavicle
     direction 0.915335 0.396201 0.0720134  
     length 4.16217  
     axis 0 0 0   XYZ
    dof ry rz
    limits (-20.0 10.0)
           (0.0 20.0)
  end
  begin
     id 18 
     name lhumerus
     direction 1 -4.48965e-011 6.383e-018   
     length 4.93042   
     axis -180 -30 -90   XYZ
    dof rx ry rz
    limits (-60.0 90.0)
           (-90.0 90.0)
           (-90.0 90.0)
  end
  begin
     id 19
     name lradius
     direction 1 -4.48972e-011 8.8689e-027   
     length 3.68177   
     axis -180 -30 -90   XYZ
    dof rx
    limits (-10.0 170.0)
  end
  begin
     id 20
     name lwrist
     direction 1 -4.48953e-011 1.17971e-026   
     length 1.84089   
     axis -7.69454e-015 90 90   XYZ
    dof ry
    limits (-180.0 0.0)
 end
  begin
     id 21 
     name lhand
     direction 1 -4.49027e-011 2.35802e-026   
     length 0.721479   
     axis -1.50533e-014 90 90   XYZ
    dof rx rz
    limits (-90.0 90.0)
           (-45.0 45.0)
  end
  begin
     id 22 
     name lfingers
     direction 1 -4.48915e-011 4.72027e-026   
     length 0.581675   
     axis -3.01059e-014 90 90   XYZ
    dof rx
    limits (0.0 90.0)
  end
  begin
     id 23
     name lthumb
     direction 0.707107 -6.34948e-011 0.707107   
     length 0.835172   
     axis -90 45 -5.12164e-014   XYZ
    dof rx rz
    limits (-45.0 45.0)
           (-45.0 45.0)
  end
  begin
     id 24 
     name rclavicle
     direction -0.882781 0.469197 0.0234974   
     length 3.95647  
     axis 0 0 0   XYZ 
    dof ry rz
    limits (-10.0 20.0)
           (-20.0 0.0)
  end
  begin
     id 25 
     name rhumerus
     direction -1 -4.48965e-011 -1.54906e-018  
     length 5.07905   
     axis -180 30 90   XYZ
    dof rx ry rz
    limits (-90.0 60.0)
           (-90.0 90.0)
           (-90.0 90.0)
  end
  begin
     id 26 
     name rradius
     direction -1 -4.48972e-011 5.47489e-027   
     length 3.54394   
     axis -180 30 90   XYZ
    dof rx
    limits (-10.0 170.0)
  end
  begin
     id 27 
     name rwrist
     direction -1 -4.48955e-011 1.17969e-026   
     length 1.77197   
     axis -7.69454e-015 -90 -90   XYZ
    dof ry
    limits (-180.0 0.0)
  end
  begin
     id 28
     name rhand
     direction -1 -4.48982e-011 2.35888e-026   
     length 0.681156   
     axis -1.50533e-014 -90 -90   XYZ
    dof rx rz
    limits (-90.0 90.0)
           (-45.0 45.0)
  end
  begin
     id 29
     name rfingers
     direction -1 -4.48955e-011 4.71877e-026   
     length 0.549165   
     axis -3.01059e-014 -90 -90   XYZ
    dof rx
    limits (0.0 90.0)
  end
  begin
     id 30
     name rthumb
     direction -0.707107 -6.3491e-011 0.707107   
     length 0.788495   
     axis -90 -45 5.12164e-014   XYZ
    dof rx rz
    limits (-45.0 45.0)
           (-45.0 45.0)
  end
:hierarchy
  begin
    root lhipjoint rhipjoint lowerback
    lhipjoint lfemur
    lfemur ltibia
    ltibia lfoot
    lfoot ltoes
    rhipjoint rfemur
    rfemur rtibia
    rtibia rfoot
    rfoot rtoes
    lowerback upperback
    upperback thorax
    thorax lowerneck lclavicle rclavicle
    lowerneck upperneck
    upperneck head
    lclavicle lhumerus
    lhumerus lradius
    lradius lwrist
    lwrist lhand lthumb
    lhand lfingers
    rclavicle rhumerus
    rhumerus rradius
    rradius rwrist
    rwrist rhand rthumb
    rhand rfingers
  end

#!OML:ASF H:\Bending\Project 1\Capture day 1\Session 1\Subject.ASF
:FULLY-SPECIFIED
:DEGREES
33
root -10.7205 17.9744 -16.216 182.795 85.0861 179.194
lowerback 5.613 -0.0511232 0.165085
upperback -2.70345 0.0739282 1.89374
thorax -5.96677 0.0804756 1.87082
lowerneck -21.3402 -4.21203 -6.21572
upperneck 30.4234 -4.17846 2.53591
head 14.1956 -1.98038 1.36674
rclavicle 8.94531e-015 -3.18055e-015
rhumerus -37.3095 -18.5023 -69.4638
rradius 25.0295
rwrist 30.0444
rhand -15.8477 -13.5635
rfingers 7.12502
rthumb 10.3471 -43.2889
lclavicle 8.94531e-015 -3.18055e-015
lhumerus -38.3075 19.5901 79.2213
lradius 20.2375
lwrist 7.6484
lhand -33.8974 7.79825
lfingers 7.12502
lthumb -7.08051 37.6598
rfemur 6.30721 -9.09467 13.0319
rtibia 7.95139e-015
rfoot -9.48583 -7.87849
rtoes -8.9961
lfemur -10.5147 -21.1976 -12.9171
ltibia 21.4556
lfoot -20.9926 17.3566
ltoes -32.6006
34
root -10.7245 17.9794 -16.2215 183.214 84.9947 179.539
lowerback 5.71794 -0.0962789 0.20409
upperback -2.67629 0.0159578 1.87707
thorax -5.99638 0.0496658 1.83814
lowerneck -21.4526 -4.25099 -6.22452
upperneck 30.5938 -4.23532 2.57503
head 14.2997 -1.99777 1.37381
rclavicle 5.83309e-015 -1.27222e-014
rhumerus -36.9301 -17.4098 -70.2033
rradius 25.2242
rwrist 29.0457
rhand -15.5044 -13.8633
rfingers 7.12502
rthumb 10.6783 -43.572
lclavicle 5.83309e-015 -1.27222e-014
lhumerus -37.8855 19.7133 79.4982
lradius 20.5497
lwrist 7.64743
lhand -33.8814 7.49669
lfingers 7.12502
lthumb -7.06513 37.3588
rfemur 6.25416 -9.19271 13.06
rtibia 6.36111e-015
rfoot -9.54242 -7.83207
rtoes -8.43981
lfemur -10.6378 -20.7126 -12.8532
ltibia 21.4134
lfoot -20.6743 16.9545
ltoes -33.3479
35
root -10.7328 17.9846 -16.2259 183.803 84.8681 180.041
lowerback 5.87634 -0.155671 0.265125
upperback -2.64778 -0.0592201 1.85001
thorax -6.05482 0.00930557 1.78466
lowerneck -21.5808 -4.32001 -6.32897
upperneck 30.8012 -4.34685 2.75317
head 14.4344 -2.02915 1.44392
rclavicle 1.07841e-014 2.38542e-015
rhumerus -36.4711 -16.0592 -71.1292
rradius 25.5234
rwrist 27.9407
rhand -15.2742 -14.4113
rfingers 7.12502
rthumb 10.9003 -44.1084
lclavicle 1.07841e-014 2.38542e-015
lhumerus -37.3859 19.245 80.0844
lradius 20.9822
lwrist 8.14533
lhand -33.8949 7.19434
lfingers 7.12502
lthumb -7.07813 37.056
rfemur 6.17339 -9.32603 13.1158
rtibia 1.59028e-015
rfoot -9.58155 -7.80805
rtoes -7.94481
lfemur -10.8325 -20.1735 -12.7544
ltibia 21.4138
lfoot -20.3476 16.4386
ltoes -34.0472
36
root -10.7462 17.99 -16.2293 184.484 84.736 180.613
lowerback 6.09047 -0.225236 0.318917
upperback -2.61653 -0.147546 1.82706
thorax -6.14221 -0.0370831 1.74179
lowerneck -21.7235 -4.40409 -6.51623
upperneck 31.0294 -4.4819 3.0283
head 14.5902 -2.06593 1.5641
rclavicle 1.67103e-014 4.77083e-015
rhumerus -35.9594 -14.3697 -72.2456
rradius 25.9944
rwrist 26.5924
rhand -15.2714 -15.2292
rfingers 7.12502
rthumb 10.903 -44.9261
lclavicle 1.67103e-014 4.77083e-015
lhumerus -36.8224 18.2653 80.9239
lradius 21.507
lwrist 9.02974
lhand -33.9057 6.90646
lfingers 7.12502
lthumb -7.08854 36.7678
rfemur 6.03839 -9.46637 13.1915
rtibia 2.54444e-014
rfoot -9.58676 -7.80309
rtoes -7.57541
lfemur -11.1037 -19.6128 -12.6287
ltibia 21.4562
lfoot -20.0579 15.834
ltoes -34.4371
37
root -10.7652 17.9953 -16.2325 185.151 84.6329 181.148
lowerback 6.35965 -0.294434 0.344147
upperback -2.57502 -0.236439 1.81623
thorax -6.25045 -0.0822935 1.72871
lowerneck -21.8744 -4.4845 -6.73795
upperneck 31.2531 -4.60457 3.32169
head 14.7488 -2.09888 1.70088
rclavicle 9.69075e-016 1.19271e-014
rhumerus -35.4476 -12.1556 -73.5856
rradius 26.7359
rwrist 24.7341
rhand -15.5408 -16.2977
rfingers 7.12502
rthumb 10.6431 -46.0082
lclavicle 9.69075e-016 1.19271e-014
lhumerus -36.2071 16.9803 81.9003
lradius 22.071
lwrist 10.068
lhand -33.8903 6.6359
lfingers 7.12502
lthumb -7.07372 36.4977
rfemur 5.83344 -9.57996 13.2734
rtibia 4.77083e-015
rfoot -9.53496 -7.81601
rtoes -7.46008
lfemur -11.4343 -19.0864 -12.4953
ltibia 21.5286
lfoot -19.8398 15.2209
ltoes -34.3761
38
root -10.7894 18.0003 -16.2364 185.682 84.5858 181.533
lowerback 6.6833 -0.349585 0.333887
upperback -2.51043 -0.30892 1.81464
thorax -6.36591 -0.117832 1.7443
lowerneck -22.021 -4.54762 -6.93257
upperneck 31.4429 -4.69144 3.55362
head 14.8879 -2.12282 1.81492
rclavicle 2.60905e-015 -8.74653e-015
rhumerus -35.0048 -9.3861 -75.1029
rradius 27.8024
rwrist 22.2816
rhand -16.0164 -17.5137
rfingers 7.12502
rthumb 10.1843 -47.2472
lclavicle 2.60905e-015 -8.74653e-015
lhumerus -35.5315 15.6217 82.8954
lradius 22.6099
lwrist 11.015
lhand -33.8342 6.37516
lfingers 7.12502
lthumb -7.01954 36.2388
rfemur 5.56276 -9.64019 13.3435
rtibia 9.54166e-015
rfoot -9.40813 -7.84859
rtoes -7.74101
lfemur -11.7883 -18.6531 -12.38
ltibia 21.6123
lfoot -19.704 14.7044
ltoes -33.898
39
root -10.8183 18.0047 -16.2415 185.957 84.6054 181.665
lowerback 7.06047 -0.379001 0.294485
upperback -2.4089 -0.350186 1.81047
thorax -6.47364 -0.137073 1.77057
lowerneck -22.1485 -4.59059 -7.05246
upperneck 31.572 -4.74103 3.6763
head 14.9873 -2.1388 1.87756
rclavicle -2.21148e-015 1.63003e-014
rhumerus -34.6592 -6.34489 -76.6368
rradius 29.1245
rwrist 19.522
rhand -16.5428 -18.6841
rfingers 7.12502
rthumb 9.67649 -48.4418
lclavicle -2.21148e-015 1.63003e-014
lhumerus -34.769 14.3518 83.8324
lradius 23.069
lwrist 11.7105
lhand -33.7303 6.11715
lfingers 7.12502
lthumb -6.91923 35.9841
rfemur 5.24758 -9.63607 13.3848
rtibia 3.18055e-015
rfoot -9.20653 -7.8994
rtoes -8.46926
lfemur -12.1258 -18.3472 -12.3056
ltibia 21.6862
lfoot -19.6352 14.366
ltoes -33.194
40
root -10.851 18.0087 -16.2481 185.886 84.6854 181.463
lowerback 7.48718 -0.377572 0.238825
upperback -2.26143 -0.353602 1.78928
thorax -6.56206 -0.137726 1.7837
lowerneck -22.2435 -4.62066 -7.08167
upperneck 31.6231 -4.77058 3.68713
head 15.0357 -2.15283 1.88078
rclavicle -4.47266e-015 -1.03368e-014
rhumerus -34.3369 -3.54237 -77.9834
rradius 30.48
rwrist 17.012
rhand -16.9485 -19.5797
rfingers 7.12502
rthumb 9.28504 -49.3552
lclavicle -4.47266e-015 -1.03368e-014
lhumerus -33.896 13.2234 84.687
lradius 23.4221
lwrist 12.1175
lhand -33.5787 5.86574
lfingers 7.12502
lthumb -6.7729 35.7374
rfemur 4.91282 -9.57363 13.3849
rtibia -9.54166e-015
rfoot -8.9552 -7.95676
rtoes -9.50743
lfemur -12.4199 -18.1567 -12.2849
ltibia 21.7317
lfoot -19.5945 14.2262
ltoes -32.5431
41
root -10.8866 18.0129 -16.2556 185.454 84.8088 180.907
lowerback 7.95332 -0.349029 0.180975
upperback -2.06888 -0.323416 1.74253
thorax -6.62613 -0.122638 1.76669
lowerneck -22.3009 -4.64875 -7.03802
upperneck 31.5944 -4.80202 3.62025
head 15.0338 -2.17139 1.83746
rclavicle -1.88845e-015 -2.38542e-015
rhumerus -33.8746 -1.46989 -78.9965
rradius 31.5604
rwrist 15.2948
rhand -17.1379 -20.0234
rfingers 7.12502
rthumb 9.10229 -49.807
lclavicle -1.88845e-015 -2.38542e-015
lhumerus -32.9103 12.1989 85.4733
lradius 23.6781
lwrist 12.3019
lhand -33.3869 5.63809
lfingers 7.12502
lthumb -6.58772 35.5156
rfemur 4.5698 -9.47035 13.3427
rtibia -9.54166e-015
rfoot -8.69688 -7.99838
rtoes -10.5352
lfemur -12.6724 -18.0165 -12.3127
ltibia 21.7379
lfoot -19.5283 14.2289
ltoes -32.1876
42
root -10.9249 18.0182 -16.2631 184.749 84.9565 180.066
lowerback 8.44227 -0.30428 0.131203
upperback -1.84313 -0.272667 1.67254
thorax -6.66842 -0.0983791 1.71737
lowerneck -22.3277 -4.68154 -6.96036
upperneck 31.5023 -4.84662 3.52419
head 14.9945 -2.19668 1.77278
rclavicle 1.17283e-014 1.59028e-015
rhumerus -33.1121 -0.399459 -79.6414
rradius 32.1092
rwrist 14.6661
rhand -17.1579 -19.9632
rfingers 7.12502
rthumb 9.08301 -49.7476
lclavicle 1.17283e-014 1.59028e-015
lhumerus -31.8364 11.2091 86.2167
lradius 23.8727
lwrist 12.3729
lhand -33.1686 5.45864
lfingers 7.12502
lthumb -6.37701 35.3426
rfemur 4.20531 -9.34613 13.269
rtibia 7.95139e-015
rfoot -8.47358 -7.99894
rtoes -11.1669
lfemur -12.9189 -17.8238 -12.3662
ltibia 21.7071
lfoot -19.3863 14.2591
ltoes -32.2211
43
root -10.9661 18.0254 -16.2699 183.962 85.1165 179.097
lowerback 8.93586 -0.257047 0.0944081
upperback -1.60366 -0.217731 1.59236
thorax -6.6985 -0.072592 1.64872
lowerneck -22.3402 -4.71589 -6.8866
upperneck 31.3751 -4.89561 3.43405
head 14.9366 -2.22412 1.71015
rclavicle -8.94531e-015 1.86858e-014
rhumerus -31.9893 -0.307508 -79.9931
rradius 32.0516
rwrist 15.0841
rhand -17.1934 -19.4926
rfingers 7.12502
rthumb 9.04877 -49.2785
lclavicle -8.94531e-015 1.86858e-014
lhumerus -30.7169 10.2109 86.9331
lradius 24.0524
lwrist 12.4274
lhand -32.9417 5.34546
lfingers 7.12502
lthumb -6.15796 35.236
rfemur 3.78437 -9.21521 13.1852
rtibia 1.59028e-014
rfoot -8.30572 -7.94111
rtoes -11.1239
lfemur -13.2194 -17.4711 -12.4124
ltibia 21.6593
lfoot -19.1457 14.1841
ltoes -32.545
44
root -11.0108 18.0345 -16.2755 183.329 85.2859 178.206
lowerback 9.4228 -0.218483 0.0714555
upperback -1.37087 -0.171644 1.52019
thorax -6.73105 -0.0510517 1.58136
lowerneck -22.3568 -4.73999 -6.83651
upperneck 31.243 -4.92455 3.35732
head 14.8774 -2.2442 1.66121
rclavicle -6.21202e-015 -2.78299e-015
rhumerus -30.5798 -0.881634 -80.2025
rradius 31.5389
rwrist 16.1837
rhand -17.4723 -18.8119
rfingers 7.12502
rthumb 8.77957 -48.6093
lclavicle -6.21202e-015 -2.78299e-015
lhumerus -29.5966 9.21369 87.6226
lradius 24.2588
lwrist 12.52
lhand -32.7224 5.30221
lfingers 7.12502
lthumb -5.94624 35.1988
rfemur 3.26547 -9.08294 13.1164
rtibia -1.59028e-015
rfoot -8.17994 -7.82627
rtoes -10.3762
lfemur -13.639 -16.8846 -12.4204
ltibia 21.6329
lfoot -18.8244 13.9012
ltoes -32.9224
45
root -11.0597 18.0443 -16.28 183.048 85.4674 177.575
lowerback 9.906 -0.193836 0.0610337
upperback -1.15921 -0.140077 1.47199
thorax -6.78289 -0.0360198 1.53402
lowerneck -22.389 -4.74017 -6.80676
upperneck 31.1251 -4.9072 3.27648
head 14.8259 -2.24756 1.62332
rclavicle -9.0944e-015 -4.37326e-015
rhumerus -29.0502 -1.58515 -80.4423
rradius 30.8845
rwrist 17.3654
rhand -18.1275 -18.1463
rfingers 7.12502
rthumb 8.14733 -47.9692
lclavicle -9.0944e-015 -4.37326e-015
lhumerus -28.509 8.26076 88.2786
lradius 24.5216
lwrist 12.6758
lhand -32.5191 5.31612
lfingers 7.12502
lthumb -5.74993 35.2181
rfemur 2.62078 -8.9484 13.0845
rtibia -1.66979e-014
rfoot -8.05475 -7.67949
rtoes -9.18174
lfemur -14.2254 -16.0494 -12.3748
ltibia 21.6781
lfoot -18.4705 13.3744
ltoes -33.1083
46
root -11.1133 18.0531 -16.2835 183.211 85.6613 177.305
lowerback 10.4033 -0.181869 0.0617472
upperback -0.972676 -0.120719 1.45506
thorax -6.86854 -0.0261347 1.51524
lowerneck -22.4365 -4.70971 -6.77998
upperneck 31.0227 -4.83226 3.16809
head 14.7806 -2.23061 1.58595
rclavicle -3.97569e-016 1.70955e-014
rhumerus -27.5788 -1.83498 -80.8382
rradius 30.4224
rwrist 18.0016
rhand -19.1051 -17.6506
rfingers 7.12502
rthumb 7.20366 -47.508
lclavicle -3.97569e-016 1.70955e-014
lhumerus -27.468 7.38344 88.8999
lradius 24.8573
lwrist 12.9219
lhand -32.3295 5.36561
lfingers 7.12502
lthumb -5.56688 35.2725
rfemur 1.85011 -8.81014 13.1008
rtibia -3.97569e-015
rfoot -7.8815 -7.54468
rtoes -8.00303
lfemur -14.9948 -15.0087 -12.2807
ltibia 21.844
lfoot -18.1336 12.6404
ltoes -32.9936
